<svg height='100px' width='100px'  fill="#000000" xmlns="http://www.w3.org/2000/svg" xmlns:xlink="http://www.w3.org/1999/xlink" version="1.1" x="0px" y="0px" viewBox="0 0 36 36" enable-background="new 0 0 36 36" xml:space="preserve"><path d="M18,2.479c-6.617,0-12,5.383-12,12c0,5.105,4.777,9.746,5.61,10.516c3.409,5.59,5.544,8.076,5.634,8.18  c0.189,0.22,0.466,0.346,0.756,0.346s0.566-0.126,0.756-0.346c0.09-0.104,2.225-2.59,5.634-8.18c0.833-0.77,5.61-5.41,5.61-10.516  C30,7.862,24.617,2.479,18,2.479z M22.946,23.605c-0.074,0.065-0.139,0.143-0.19,0.228c-2.183,3.589-3.852,5.9-4.756,7.082  c-0.904-1.182-2.573-3.493-4.756-7.082c-0.052-0.085-0.116-0.162-0.19-0.229C13.003,23.56,8,19.064,8,14.479c0-5.514,4.486-10,10-10  s10,4.486,10,10C28,19.05,22.996,23.561,22.946,23.605z"></path><path d="M18.279,7.284c-0.168-0.114-0.391-0.114-0.559,0l-6.399,4.318c-0.229,0.154-0.29,0.465-0.135,0.693  c0.096,0.144,0.254,0.221,0.414,0.221c0.097,0,0.194-0.027,0.279-0.086l0.343-0.231v6.712c0,0.276,0.224,0.5,0.5,0.5h10.555  c0.276,0,0.5-0.224,0.5-0.5v-6.712l0.344,0.231c0.226,0.156,0.541,0.097,0.693-0.135c0.155-0.229,0.095-0.539-0.135-0.693  L18.279,7.284z M19.242,18.411H16.76v-4.162c0-0.115,0.093-0.209,0.206-0.209h2.068c0.114,0,0.208,0.094,0.208,0.209V18.411z   M22.777,18.411h-2.535v-4.162c0-0.667-0.542-1.209-1.208-1.209h-2.068c-0.665,0-1.206,0.542-1.206,1.209v4.162h-2.537v-6.887  L18,8.302l4.777,3.223V18.411z"></path></svg>