<svg height='100px' width='100px'  fill="#000000" version="1.1" xmlns="http://www.w3.org/2000/svg" xmlns:xlink="http://www.w3.org/1999/xlink" x="0px" y="0px" viewBox="0 0 100 45.574" enable-background="new 0 0 100 45.574" xml:space="preserve"><path d="M72.869,11.338c0.002,0.011-0.004,0.025,0,0.037c0.089,0.429,0.191,0.946,0.293,1.464L77.153,15l0.233-1.142L72.869,11.338z
	"></path><path d="M75.359,10.679c-0.088-0.002-0.172,0.024-0.257,0.037c-0.024,0.003-0.051-0.004-0.073,0c-0.001,0-0.054,0.029-0.073,0.037
	c-0.112,0.029-0.227,0.051-0.329,0.11c-0.021,0.008-0.073,0.037-0.073,0.037c-0.096,0.061-0.174,0.131-0.257,0.22
	c-0.092,0.086-0.12,0.114-0.146,0.146c-0.02,0.02-0.022,0.053-0.036,0.073l2.819,1.538c0.007-0.02,0.022-0.083,0.036-0.11
	c0.025-0.052,0.051-0.084,0.073-0.22c0.006-0.041,0.001-0.111,0-0.146c-0.001-0.009,0-0.037,0-0.037
	c0.004-0.087,0.012-0.172,0-0.256c-0.004-0.022,0.004-0.051,0-0.073c-0.001,0-0.057-0.188-0.109-0.329
	c-0.008-0.016-0.03-0.021-0.037-0.037c-0.016-0.038-0.036-0.11-0.036-0.11c-0.001,0-0.104-0.128-0.184-0.22
	c-0.016-0.017-0.021-0.019-0.036-0.037c-0.012-0.012-0.025-0.025-0.037-0.037c-0.121-0.138-0.227-0.26-0.256-0.293
	c-0.001,0-0.033-0.035-0.037-0.037c-0.06-0.022-0.361-0.118-0.549-0.183c-0.065-0.022-0.184-0.073-0.184-0.073
	C75.577,10.679,75.462,10.672,75.359,10.679z"></path><path d="M68.475,8.226c-0.678,0.034-1.324,0.163-1.904,0.293c-0.025,0.006-0.05-0.006-0.073,0l-0.183,0.073l-0.22,0.037
	c-1.759,0.437-3.514,0.896-5.272,1.318c-1.336,0.48-1.543,2.034-2.16,3.149c-0.845,2.225-1.902,4.412-2.563,6.701
	c-0.121,2.071-0.361,4.158-0.366,6.224c0.127,1.563,2.501,1.852,3.076,0.439c0.413-1.552,0.354-3.207,0.585-4.796
	c-0.027-1.84,0.998-3.429,1.575-5.126c0.547-1.743,0.208,1.137,0.293,1.794c0.007,1.898-0.036,3.815,0,5.711
	c-0.007,0.1-0.037,0.194-0.037,0.292c-0.002,0.109,0.017,0.225,0.037,0.33c0.061,0.319,0.209,0.613,0.439,0.842
	c-0.01,0.051-0.03,0.1-0.037,0.146c-0.022,0.142-0.046,0.332-0.073,0.55c-0.06,0.437-0.128,1.031-0.22,1.794
	c-0.176,1.46-0.409,3.514-0.659,5.748c-0.061,0.139-0.114,0.274-0.146,0.403c-0.52,1.491-1.048,2.975-1.574,4.467
	c-0.178,0.503-0.439,1.224-0.586,1.647c-0.17,0.501-0.353,1-0.513,1.501c-0.034,0.102-0.081,0.279-0.109,0.366
	c-0.055,0.164-0.073,0.285-0.11,0.403c-0.004,0.011,0.003,0.025,0,0.036c-0.021,0.041-0.063,0.078-0.073,0.109
	c-0.022,0.073-0.05,0.135-0.073,0.22c-0.013,0.044-0.016,0.102-0.036,0.22c-0.012,0.062-0.034,0.117-0.037,0.33
	c-0.002,0.062-0.004,0.122,0,0.183c0,0.001,0.072,0.366,0.073,0.366c0,0-0.002,0.034,0,0.037c0.03,0.107,0.099,0.194,0.146,0.293
	c0.062,0.162,0.109,0.329,0.11,0.329c0,0,0.221,0.213,0.329,0.33c0.03,0.034,0.072,0.109,0.073,0.109c0,0,0.165,0.092,0.33,0.184
	c0.163,0.091,0.328,0.183,0.329,0.183c0,0,0.082-0.002,0.11,0c0.014,0.005,0.021,0.032,0.036,0.036
	c0.153,0.023,0.355,0.057,0.476,0.073c0.033,0.003,0.075,0.002,0.11,0l0.439-0.036c0.027-0.005,0.046-0.029,0.073-0.037h0.073
	c0.093-0.027,0.172-0.107,0.256-0.146c0.048-0.025,0.06-0.011,0.11-0.037c0.015-0.007,0.021-0.027,0.036-0.036
	c0.099-0.052,0.219-0.11,0.22-0.11c0,0,0.073-0.074,0.146-0.146c0.037-0.035,0.073-0.071,0.11-0.109c0,0,0.113-0.104,0.146-0.146
	c0.054-0.069,0.047-0.075,0.073-0.11c0.034-0.049,0.077-0.094,0.109-0.146c0.059-0.105,0.091-0.142,0.11-0.183
	c0.034-0.066,0.038-0.149,0.073-0.22c0.056-0.14,0.134-0.325,0.22-0.55c0.029-0.08,0.109-0.235,0.146-0.329
	c0.117-0.337,0.202-0.687,0.33-0.988c0.064-0.186,0.152-0.364,0.22-0.55c0.312-0.849,0.799-2.161,1.208-3.295
	c0.337-0.923,0.682-1.85,0.988-2.783c0.075-0.209,0.146-0.451,0.22-0.659c0.052-0.142,0.09-0.288,0.11-0.438
	c0.261-2.362,0.501-4.51,0.659-6.042c0.034-0.343,0.043-0.531,0.073-0.806c0.266,0.057,0.544,0.044,0.806-0.036
	c0.288,0.928,0.711,2.312,1.135,3.661c-0.005,0.009,0.002,0.027,0,0.037c1,3.232,1.433,6.602,2.233,9.886
	c0.271,1.347,0.513,3.13,2.16,3.405c1.41,0.202,2.774-1.191,2.344-2.6c-0.63-3.536-1.407-7.058-2.124-10.582
	c-0.858-2.495-1.609-5.052-2.562-7.506c-0.021-0.019-0.028-0.06-0.037-0.073c-0.005-0.004,0.004-0.03,0-0.037
	c-0.033-0.046-0.053-0.065-0.146-0.183c-0.029-0.034-0.08-0.107-0.109-0.146c0.04-0.13,0.064-0.266,0.073-0.402
	c-0.005-1.414,0.005-2.524,0-3.808c-0.002-0.049,0-0.097,0-0.146c-0.007-1.317-0.035-2.637-0.037-3.955
	c-0.002-0.311,0.002-0.46,0-0.732c0.181,0.848,0.373,1.777,0.586,2.746c0.058,0.263,0.162,0.514,0.22,0.769
	c0.005,0.023-0.006,0.051,0,0.073c0.012,0.025,0.022,0.049,0.036,0.073c-0.001,0.025-0.001,0.049,0,0.073
	c0.012,0.025,0.023,0.049,0.037,0.073c0.038,0.103,0.087,0.201,0.146,0.293c0.012,0.024,0.022,0.049,0.036,0.073
	c0.064,0.093,0.138,0.179,0.22,0.256c0.023,0.013,0.049,0.025,0.073,0.037c0.603,0.482,1.557,0.449,2.124-0.073
	c0.036-0.023,0.073-0.047,0.109-0.073c0-0.012,0-0.024,0-0.037c0.038-0.035,0.075-0.071,0.11-0.11c0.012,0,0.022,0,0.036,0
	c0.326-0.482,0.617-0.91,0.916-1.354c0.167-0.251,0.354-0.535,0.513-0.769c0.373-0.556,0.697-1.022,0.988-1.465
	c0.029-0.046,0.048-0.099,0.073-0.146l-2.966-1.611c-0.022,0.03-0.053,0.043-0.073,0.073c-0.012-0.053-0.027-0.093-0.036-0.146
	v-0.037c-0.121-0.603-0.229-1.204-0.33-1.684c-0.036-0.167-0.099-0.329-0.183-0.476c-0.342-0.604-0.604-1.083-0.806-1.428
	c-0.067-0.114-0.133-0.171-0.184-0.256c-0.027-0.044-0.05-0.108-0.073-0.146c-0.034-0.055-0.063-0.116-0.109-0.183
	c-0.019-0.024-0.041-0.068-0.073-0.11c-0.001,0-0.031-0.031-0.037-0.037c-0.037-0.043-0.069-0.099-0.22-0.22
	c-0.038-0.03-0.146-0.11-0.146-0.11c-0.001,0-0.138-0.069-0.22-0.11c-0.343-0.11-0.698-0.163-1.062-0.183
	C68.944,8.213,68.699,8.214,68.475,8.226z"></path><path d="M58.223,4.088l1.684,1.575l1.465,0.806c-0.227-0.388-0.385-0.826-0.476-1.282c-0.023-0.11-0.026-0.22-0.037-0.33
	L60.53,4.674L58.223,4.088z"></path><path d="M65.216,0.464c-0.791,0-1.515,0.247-2.124,0.659c-0.609,0.412-1.103,0.998-1.391,1.684
	c-0.195,0.457-0.293,0.974-0.293,1.501c0,0.264,0.021,0.521,0.073,0.769c0.15,0.746,0.505,1.386,1.024,1.904
	c0.345,0.345,0.787,0.649,1.245,0.842c0.455,0.193,0.938,0.293,1.465,0.293c0.263,0,0.52-0.022,0.769-0.073
	c1.739-0.355,3.039-1.889,3.039-3.735C69.024,2.198,67.324,0.464,65.216,0.464z"></path><path d="M41.672,24.729c-0.024,0.673-0.047,1.202-0.073,1.904c-0.025,0.457,0.152,0.921,0.476,1.245
	c-0.003,0.016,0.002,0.057,0,0.073c-0.003,0.022,0.002,0.049,0,0.073c-0.01,0.05-0.033,0.099-0.037,0.146
	c-0.004,0.039,0.003,0.102,0,0.146c-0.008,0.079-0.028,0.134-0.037,0.22c-0.004,0.053,0.003,0.087,0,0.146
	c-0.029,0.322-0.066,0.682-0.073,1.099c-0.136,2.32-0.17,4.634-0.293,6.956c-0.817,1.945-1.676,3.86-2.453,5.822
	c-0.336,0.708-0.219,1.54,0.183,2.196c0.632,0.68,1.646,1.045,2.526,0.659c1.13-0.439,1.382-1.769,1.868-2.746
	c0.715-1.662,1.477-3.291,2.124-4.979c0.168-2.066,0.174-4.151,0.256-6.225c-0.015-0.012-0.023-0.025-0.037-0.036
	c0.023-0.286,0.064-0.564,0.073-0.843c0.007-0.231,0.027-0.349,0.037-0.549c0.242,0.043,0.495,0.029,0.732-0.037
	c0.012,0.035,0.024,0.073,0.037,0.11c0.479,1.471,1.017,2.919,1.465,4.394c0.205,2.852,0.274,5.73,0.623,8.568
	c0.17,0.729,0.851,1.265,1.611,1.428c0.759,0.161,1.606-0.146,2.124-0.732c0.669-0.852,0.296-1.98,0.366-2.966
	c-0.117-2.432-0.209-4.864-0.439-7.286c-0.456-1.365-0.936-2.712-1.429-4.064c-0.042-0.166-0.094-0.316-0.146-0.476
	c-0.059-0.159-0.124-0.318-0.183-0.477c-0.222-0.6-0.417-1.082-0.55-1.428c-0.014-0.036-0.054-0.046-0.073-0.073
	c-0.021-0.031-0.021-0.078-0.037-0.109c-0.042,0.029-0.067,0.082-0.11,0.109c-0.008,0.005-0.028-0.005-0.037,0
	c-0.25,0.044-0.586,0.286-0.879,0.22c-0.625,0.033-1.158-0.246-1.757-0.402C45.563,26.153,43.62,25.448,41.672,24.729z"></path><path d="M53.646,24.656l-1.94,0.293c0.406,0.218,0.984,0.277,1.354,0.11C53.273,24.978,53.472,24.819,53.646,24.656z"></path><path d="M53.755,22.715l-2.929,0.623c0.392,0.574,0.385,0.938,0.439,1.282l2.709-0.439l1.245-0.586l-0.036-0.733L53.755,22.715z"></path><path d="M44.199,10.779c-2.598,0.684-4.798,3.604-4.54,6.7c0.169,1.277,0.31,3.298,0.476,4.943c0.092,0.7,0.57,1.364,1.281,1.538
	c2.494,0.879,4.981,1.827,7.506,2.6c0.748,0.104,1.596-0.352,1.795-1.099c0.189-0.714-0.019-1.525-0.697-1.904
	c-1.21-0.586-2.516-0.971-3.771-1.465c-0.95-0.342-1.908-0.682-2.856-1.025c-0.125-1.331-0.258-2.662-0.403-3.991
	c0.118-0.416,0.407-1.562,0.805-1.318c0.016,0.777-0.122,1.329-0.073,2.014c0.108,0.935,0.204,1.883,0.292,2.819
	c1.892,0.707,3.808,1.352,5.675,2.124c0.07-0.362-0.008-1.101,0-1.611c-0.032-1.89-0.183-3.316-0.146-5.206
	c0.032-0.375,0.099-1.234,0.256-1.282c0.152,0.439,0.283,0.848,0.306,1.252l0.17,3.039c0.052,1.367,0.099,2.733,0.146,4.101
	c0.085,0.068,0.143,0.149,0.221,0.22c0.002-0.281,0.229-0.553,0.512-0.586l2.49-0.402l-1.794-3.169l-0.146-4.922
	c-0.041-1.329-0.52-2.186-1.465-3.076c-0.759,0.73-1.764,1.208-2.893,1.208c-0.952,0-1.83-0.33-2.526-0.878
	C44.588,11.219,44.392,11.002,44.199,10.779z"></path><path d="M47.348,4.444c-0.5,0-0.959,0.11-1.391,0.293c-0.217,0.092-0.43,0.2-0.623,0.33c-0.193,0.13-0.386,0.276-0.549,0.439
	c-0.164,0.164-0.31,0.356-0.439,0.549c-0.13,0.192-0.238,0.405-0.33,0.622s-0.171,0.423-0.22,0.659s-0.073,0.482-0.073,0.732
	c0,0.75,0.232,1.437,0.622,2.014c0.13,0.192,0.275,0.386,0.439,0.549c0.164,0.164,0.356,0.31,0.549,0.439
	c0.577,0.39,1.265,0.623,2.014,0.623c1.999,0,3.625-1.625,3.625-3.625C50.973,6.07,49.346,4.444,47.348,4.444z"></path><path d="M23.512,26.219c-0.125,0.806-0.334,1.608-0.439,2.417c-0.011,0.043-0.027,0.061-0.037,0.109
	c-0.024,0.131-0.047,0.27-0.037,0.402c0.03,0.398,0.223,0.784,0.513,1.062c0,0.011,0,0.023,0,0.036
	c-0.032,0.2-0.039,0.298-0.037,0.366c0.003,0.148,0.03,0.207,0.037,0.257s0.03,0.074,0.037,0.109c0.006,0.033-0.006,0.078,0,0.11
	c0,0.002,0.033-0.005,0.037,0c0.362,1.987,0.833,3.961,1.281,5.931c-1.375,1.788-2.79,3.55-4.101,5.383
	c-0.457,0.678-0.497,1.647,0.073,2.271c0.403,0.791,1.46,1.024,2.27,0.842c0.972-0.251,1.41-1.19,2.05-1.867
	c1.314-1.652,2.625-3.312,3.918-4.979c0.659-0.984,0.101-2.158-0.11-3.186c-0.253-1.025-0.513-2.052-0.769-3.076
	c0.237-0.048,0.465-0.148,0.659-0.293c0.024,0.032,0.047,0.039,0.073,0.073c0.297,0.396,0.779,0.983,1.208,1.538
	c0.229,0.297,0.384,0.531,0.622,0.842l-0.183,1.245c-0.219,2.027-0.509,4.04-0.622,6.078c0.032,0.804,0.565,1.645,1.354,1.867
	c0.824,0.396,1.928,0.041,2.453-0.695c0.515-0.746,0.427-1.712,0.623-2.563c0.276-2.196,0.574-4.387,0.769-6.59
	c-0.017-0.387-0.138-0.619-0.366-1.025c-0.229-0.407-0.773-1.122-1.135-1.574c-0.07-0.093-0.146-0.197-0.22-0.293
	c-0.021,0.018-0.11,0.073-0.11,0.073c-0.606,0.297-1.041,0.28-1.538,0.22c-0.013-0.003-0.024,0-0.037,0
	c-0.198-0.03-0.37-0.069-0.549-0.146c-0.01-0.005-0.027,0.004-0.037,0c-0.051-0.025-0.079-0.045-0.11-0.073
	c-0.03-0.016-0.044-0.059-0.073-0.073c-0.066-0.037-0.191-0.105-0.33-0.184c-0.023-0.015-0.051-0.022-0.073-0.036
	c-0.163-0.098-0.438-0.269-0.659-0.403c-0.121-0.075-0.242-0.158-0.366-0.22c-0.097-0.062-0.196-0.122-0.293-0.183
	c-1.824-1.138-3.688-2.223-5.456-3.442C23.693,26.452,23.599,26.337,23.512,26.219z"></path><path d="M28.015,15.454c-3.324,0.93-4.829,3.377-5.236,6.151c-0.136,0.925,0.553,1.988,0.806,2.967
	c0.155,0.835,0.526,1.629,1.354,1.977c2.175,1.375,4.38,2.756,6.591,4.064c0.69,0.325,1.488,0.042,1.94-0.549
	c0.419-0.6,0.492-1.485-0.037-2.051c-0.725-0.668-1.61-1.085-2.417-1.647l-3.881-2.453c-0.109-0.124-0.481-1.2-0.713-2.217
	l0.063-1.061l0.43-0.312l-0.037,1.281l0.513,1.721l0.695,0.44c1.128,0.723,2.275,1.401,3.405,2.124
	c0.191-1.831,0.421-3.659,0.586-5.493c0.788,1.065,1.577,2.13,2.38,3.186c0.709,2.115,1.396,4.238,2.16,6.334
	C36.97,30.7,37.873,31,38.67,30.833c0.709-0.327,1.289-1.095,1.062-1.904c-0.626-2.313-1.43-4.562-2.16-6.847
	c-0.722-1.12-1.627-2.147-2.417-3.222c-0.24-0.245-0.39-0.532-0.513-0.842c-0.104-0.26-0.173-0.536-0.256-0.806
	c-0.104-0.52-0.453-0.886-0.696-1.245c-0.174,0.154-0.354,0.278-0.549,0.402c-0.335,0.215-0.708,0.373-1.098,0.476
	c-0.309,0.079-0.636,0.149-0.952,0.146C29.908,16.982,28.742,16.423,28.015,15.454z"></path><path d="M31.127,9.632c-0.233,0-0.44,0.028-0.659,0.073c-0.22,0.045-0.458,0.098-0.659,0.183c-1.211,0.513-2.051,1.713-2.051,3.112
	c0,0.466,0.085,0.915,0.256,1.318c0.085,0.202,0.208,0.407,0.33,0.586c0.121,0.18,0.25,0.36,0.403,0.513
	c0.152,0.153,0.333,0.282,0.513,0.403c0.538,0.364,1.169,0.585,1.867,0.585c0.233,0,0.476-0.028,0.696-0.073
	c1.538-0.314,2.673-1.7,2.673-3.332C34.496,11.136,32.99,9.632,31.127,9.632z"></path><path d="M10.068,40.595c0.017,0.635-0.091,1.272-0.037,1.903c-0.021,0.502,0.195,0.91,0.403,1.282
	c0.16,0.288,0.463,0.501,0.769,0.622c0.51,0.204,1.123,0.235,1.647,0.073c0.409-0.126,0.756-0.436,1.025-0.769
	c0.157-0.195,0.229-0.433,0.33-0.659c-0.163-0.1-0.358-0.166-0.513-0.257c-0.327-0.146-0.642-0.37-0.952-0.549
	C11.841,41.696,10.96,41.157,10.068,40.595z"></path><path d="M5.052,30.783c-0.688,0.651-1.44,1.25-2.087,1.94c-0.447,0.629-0.406,1.569,0.146,2.123l0.073,4.211l-2.746,3.148
	c-0.399,0.446-0.504,1.083-0.403,1.648c0.109,0.606,0.541,1.15,1.099,1.464c0.575,0.324,1.288,0.33,1.867,0.073
	c0.685-0.303,1.124-0.951,1.611-1.501l2.563-2.893c0.429-0.607,0.33-1.353,0.293-2.05c-0.689-0.408-1.467-0.826-1.721-1.648
	c-0.375-1.144-0.693-2.317-1.025-3.479c-0.128-0.805,0.139-1.617,0.22-2.416C4.975,31.197,5.022,30.992,5.052,30.783z"></path><path d="M16.439,25.51c0.472,2.008-1.339,4.062-3.369,3.99c-1.582,0.036-3.063-1.188-3.332-2.746
	c-0.831,0.22-1.699,0.078-2.526,0.184c-0.547,0.172-1.008,0.729-1.135,1.318c-0.272,1.71-0.588,3.441-0.769,5.162
	c0.25,1.192,0.667,2.339,0.989,3.515c0.268,0.96,1.286,1.264,2.014,1.795c1.851,1.15,3.669,2.369,5.565,3.441
	c0.777,0.51,1.911,0.128,2.307-0.659c0.467-0.945-0.062-1.975-0.989-2.38c-1.916-1.266-3.846-2.505-5.785-3.734L8.787,32.87
	c0.151-0.95,0.283-1.918,0.732-2.783c0.235,1.005,0.015,2.036-0.11,3.039l0.614,1.832c1.367,0.878,3.135,2.011,4.476,2.928
	c0.163-0.815-0.461-1.536-0.989-2.087c-0.843-0.927-1.616-1.942-2.563-2.746c0.998-1.089,1.977-2.196,2.966-3.295
	c0.131,0.787,0.085,1.699,0.696,2.307c0.802,1.08,1.592,2.158,2.417,3.222c0.72,2.121,0.992,2.845,1.826,4.924
	c0.334,0.833,1.42,1.067,2.197,0.695s1.073-1.424,0.732-2.123c-0.109-0.225-0.401-1.384-0.586-2.014
	c-0.5-1.53-0.425-1.741-1.167-3.166c-0.672-1.291-1.76-2.315-2.636-3.479c-0.195-1.371-0.432-2.738-0.659-4.102
	C16.674,25.834,16.562,25.661,16.439,25.51z"></path><path d="M13.071,23.24c-0.196,0-0.364,0.036-0.549,0.073c-1.109,0.228-2.006,1.086-2.233,2.197
	c-0.038,0.185-0.037,0.389-0.037,0.585c0,0.982,0.489,1.833,1.245,2.344c0.454,0.307,0.986,0.476,1.574,0.476
	c0.196,0,0.4,0.002,0.586-0.036c1.296-0.265,2.27-1.407,2.27-2.783C15.927,24.525,14.64,23.24,13.071,23.24z"></path><path d="M90.59,41.997l-0.477,2.124l1.172,0.293l0.073-0.33c-0.036-0.049-0.078-0.093-0.109-0.146
	c-0.016-0.023-0.028-0.048-0.037-0.073C90.973,43.249,90.773,42.625,90.59,41.997z"></path><path d="M97.95,17.685l-0.586,2.6c0.439-0.125,0.819-0.404,1.025-0.989C98.572,18.558,98.36,18.052,97.95,17.685z"></path><path d="M88.65,8.202c-0.312,0.009-0.633,0.037-0.916,0.037c-1.694,0.207-3.742,0.48-5.053,0.805
	c-1.312,0.325-1.989,0.656-2.673,1.392c-0.09,0.096-0.176,0.189-0.256,0.293c0-0.001-0.001,0.036,0,0.037
	c-0.022,0.027-0.053,0.045-0.073,0.073c-0.004,0.007,0.002,0.029,0,0.037c-0.718,0.985-1.123,2.258-1.355,3.441
	c-0.018,0.113-0.021,0.217-0.036,0.33c-0.1,0.493-0.175,0.984-0.256,1.465c-0.148,0.868-0.314,1.797-0.477,2.783
	c-0.043,0.256-0.069,0.518-0.109,0.769c-0.092,0.509,0.076,1.058,0.439,1.428c0.704,0.705,1.368,1.374,1.977,1.977
	c0.066,0.081,0.156,0.136,0.22,0.22c0.087,0.087,0.171,0.136,0.257,0.22c0.198,0.185,0.391,0.39,0.585,0.586
	c0.177,0.172,0.391,0.394,0.55,0.549c0.625,0.641,1.262,1.279,2.014,1.758c1.566,0.703,3.032-1.545,1.758-2.709
	c-0.91-0.94-1.856-1.854-2.783-2.783c-0.032-0.048-0.069-0.099-0.109-0.146c-0.025-0.024-0.051-0.049-0.073-0.073
	c-0.414-0.415-0.89-0.89-1.355-1.355c0.161-0.944,0.3-1.838,0.439-2.673c0.131-0.79,0.262-1.517,0.366-2.16
	c0.272-0.653,0.39-0.941,0.843-1.208l-0.184,1.391c-0.192,0.675-0.281,1.356-0.402,2.087c-0.123,0.729-0.266,1.522-0.403,2.343
	c1.459,1.517,3.064,2.899,4.431,4.504c0.563,0.831,0.424,1.931-0.183,2.709c-0.295,0.31-0.648,0.546-1.062,0.695
	c-0.129,0.047-0.27,0.086-0.402,0.11c-0.026,0.002-0.048-0.003-0.073,0c-1.048,0.074-1.877-0.673-2.637-1.392
	c-0.006,0.021,0.003,0.049,0,0.073c-0.014,0.147-0.022,0.315-0.036,0.549c-0.007,0.089-0.032,0.265-0.037,0.366
	c-0.024,0.426-0.053,0.855-0.073,1.282c-0.007,0.115,0.005,0.17,0,0.293c-0.001,0.011,0,0.024,0,0.036
	c-0.101,1.946-0.176,3.91-0.256,5.858c-1.626,2.828-3.348,5.614-4.87,8.494c-0.533,1.438,0.74,3.109,2.271,2.856
	c1.543-0.357,2.014-1.983,2.782-3.223c0.039-0.064,0.104-0.12,0.146-0.183c0.045-0.077,0.136-0.214,0.184-0.293
	c0.041-0.072,0.068-0.147,0.109-0.22c0.86-1.448,1.937-3.23,3.149-5.309c0.084-0.146,0.171-0.296,0.256-0.439
	c0.177-0.299,0.279-0.643,0.293-0.989c0.101-2.519,0.166-4.77,0.22-6.407c0.012-0.355,0.023-0.551,0.037-0.842
	c0.278,0.049,0.573,0.023,0.842-0.073c0.012,0.03,0.022,0.041,0.036,0.073c0.372,0.9,0.934,2.248,1.502,3.588
	c-0.002,0.008,0,0.028,0,0.037c0.903,2.147,1.243,4.469,1.903,6.7c0.529,1.894,0.938,3.845,1.647,5.675
	c0.726,1.166,2.531,1.265,3.369,0.184c1.012-1.237,0.102-2.817-0.11-4.175c-0.833-3.169-1.493-6.379-2.526-9.482
	c-0.948-2.132-1.811-4.331-2.855-6.408c-0.034-0.049-0.102-0.132-0.22-0.256c0.031-0.144,0.043-0.292,0.036-0.439
	c-0.004-1.305-0.002-2.319,0-3.515c0.019-0.254,0.014-0.495,0-0.695c0.003-1.234,0-2.464,0-3.698c-0.002-0.45,0.003-0.688,0-1.062
	c0.195,0.755,0.359,1.428,0.586,2.307c0.124,0.488,0.247,0.936,0.366,1.392c0.131,0.543,0.563,1.004,1.099,1.172
	c1.239,0.379,2.315,0.629,3.148,0.915c0.09,0.031,0.202,0.077,0.293,0.11l0.732-3.259c-0.188-0.057-0.372-0.129-0.549-0.183
	c-0.544-0.165-1.066-0.324-1.685-0.512c-0.046-0.183-0.101-0.363-0.146-0.549c-0.252-1.002-0.479-1.95-0.695-2.783
	c-0.005-0.018-0.032-0.02-0.037-0.037c-0.309-1.27-0.806-2.459-1.537-3.552C90.528,8.232,89.579,8.174,88.65,8.202z"></path><path d="M100,3.148l-1.61,4.357L93.19,30.5c0.247,0.777,0.482,1.561,0.695,2.344l5.639-24.825L100,3.148z"></path><path d="M85.391,0c-0.265,0-0.522,0.022-0.77,0.073c-0.497,0.102-0.949,0.311-1.354,0.585c-0.204,0.138-0.414,0.303-0.586,0.476
	c-0.52,0.519-0.874,1.194-1.025,1.94c-0.051,0.249-0.073,0.505-0.073,0.769c0,0.527,0.099,1.008,0.293,1.465
	c0.097,0.228,0.229,0.456,0.366,0.659c0.137,0.203,0.266,0.376,0.439,0.549c0.69,0.69,1.656,1.135,2.71,1.135
	c0.263,0,0.52-0.023,0.769-0.073c1.739-0.355,3.039-1.889,3.039-3.735C89.199,1.734,87.499,0,85.391,0z"></path></svg>