<svg height='100px' width='100px'  fill="#000000" xmlns="http://www.w3.org/2000/svg" xmlns:xlink="http://www.w3.org/1999/xlink" version="1.1" x="0px" y="0px" viewBox="0 0 100 100" enable-background="new 0 0 100 100" xml:space="preserve"><path fill-rule="evenodd" clip-rule="evenodd" fill="#000000" d="M92.112,47.284h-6.406c0.038-0.659,0.06-1.321,0.06-1.99  c0-4.778-0.95-9.337-2.658-13.507c3.191-1.122,5.482-4.154,5.482-7.728h-9.835c-2.901-3.917-6.586-7.217-10.816-9.68  c1.085-1.39,1.736-3.133,1.736-5.032H53.279c0,0.118,0.013,0.233,0.018,0.35c-1.084-0.1-2.178-0.158-3.285-0.158  c-1.176,0-2.337,0.061-3.483,0.172c0.013-0.191,0.028-0.381,0.028-0.575H30.163c0,1.999,0.717,3.828,1.905,5.25  c-4.299,2.506-8.031,5.879-10.952,9.883h-9.028c0,3.33,1.99,6.191,4.843,7.474c-1.719,4.182-2.674,8.756-2.674,13.55  c0,0.618,0.016,1.232,0.047,1.842H7.378c0,4.527,3.67,8.196,8.197,8.196c0.042,0,0.083-0.005,0.125-0.005  c1.343,4.582,3.577,8.788,6.508,12.411h-3.163c0,4.527,3.671,8.197,8.197,8.197c1.168,0,2.277-0.248,3.283-0.688  c0.938,0.612,1.905,1.18,2.9,1.703l-6.225,13.447h-7.61v4.611H79.78v-4.611h-7.144l-6.193-13.368c0.964-0.5,1.9-1.044,2.809-1.625  c0.861,0.308,1.787,0.484,2.756,0.484c4.525,0,8.196-3.67,8.196-8.197H77.85c2.885-3.576,5.093-7.716,6.435-12.228  C88.639,55.27,92.112,51.688,92.112,47.284z M38.36,17.334c0.146,0,0.289-0.014,0.433-0.022l7.834,21.524  c-0.179,0.093-0.359,0.178-0.528,0.285L29.044,18.796c1.417-1.123,2.925-2.137,4.513-3.025C34.908,16.75,36.563,17.334,38.36,17.334  z M61.478,17.543c1.901,0,3.648-0.655,5.04-1.743c1.587,0.892,3.094,1.907,4.508,3.034L53.978,39.153  c-0.167-0.109-0.352-0.191-0.528-0.287l7.766-21.336C61.304,17.533,61.389,17.543,61.478,17.543z M37.033,76.511l0.635-1.373  l-0.516,1.42C37.113,76.541,37.073,76.527,37.033,76.511z M47.327,54.277l0.884-1.911c0.151,0.039,0.297,0.085,0.452,0.114  l0.003,23.704h-7.784c0,0.587,0.064,1.157,0.181,1.709c-0.707-0.196-1.404-0.413-2.093-0.649L47.327,54.277z M50.607,76.185  l-0.003-23.629c0.22-0.017,0.441-0.028,0.656-0.065l9.097,24.988c-1.107,0.356-2.236,0.66-3.39,0.902  c0.194-0.699,0.307-1.435,0.307-2.196H50.607z M62.188,76.827l-2.785-7.647l3.425,7.394C62.617,76.66,62.401,76.743,62.188,76.827z   M56.922,47.613l19.737,3.477c1.132,2.153,3.19,3.742,5.645,4.233c-0.666,2.139-1.539,4.187-2.596,6.122L56.734,48.184  C56.812,48.001,56.857,47.804,56.922,47.613z M75.896,48.984l-18.605-3.28c0.008-0.138,0.041-0.27,0.041-0.411  c0-0.064-0.018-0.124-0.019-0.187l26.163-4.616c0.225,1.57,0.347,3.171,0.347,4.803c0,0.669-0.024,1.332-0.064,1.99h-8.041  C75.718,47.868,75.781,48.435,75.896,48.984z M83.15,38.576l-26.161,4.615c-0.063-0.207-0.113-0.421-0.192-0.621l19.634-11.337  c1.175,0.651,2.526,1.024,3.964,1.024c0.268,0,0.532-0.015,0.795-0.04C82.043,34.244,82.704,36.372,83.15,38.576z M76.298,24.059  h-4.103c0,2.327,0.976,4.423,2.533,5.915L55.826,40.889c-0.121-0.16-0.248-0.314-0.382-0.462l17.068-20.343  C73.879,21.305,75.143,22.635,76.298,24.059z M59.257,17.23l-7.619,20.937c-0.213-0.05-0.436-0.07-0.655-0.098V11.506  c0.887,0.025,1.769,0.078,2.639,0.17C54.416,14.364,56.554,16.47,59.257,17.23z M49.041,11.506v26.563  c-0.2,0.025-0.402,0.037-0.596,0.079L40.74,16.981c2.545-0.773,4.564-2.751,5.398-5.271C47.094,11.6,48.062,11.534,49.041,11.506z   M27.556,20.043l17.061,20.334c-0.118,0.13-0.227,0.27-0.336,0.408L25.938,30.196c1.565-1.492,2.546-3.593,2.546-5.926h-4.925  C24.77,22.749,26.106,21.335,27.556,20.043z M20.285,32.467c1.431,0,2.776-0.368,3.947-1.013l19.034,10.988  c-0.07,0.164-0.103,0.345-0.16,0.515l-26.185-4.616c0.437-2.082,1.067-4.094,1.869-6.017C19.275,32.414,19.773,32.467,20.285,32.467  z M16.199,45.294c0-1.712,0.13-3.395,0.377-5.041l26.156,4.612c-0.009,0.144-0.042,0.282-0.042,0.429  c0,0.059,0.015,0.111,0.017,0.168l-19.113,3.372c0.115-0.548,0.178-1.116,0.178-1.697h-7.521  C16.218,46.526,16.199,45.913,16.199,45.294z M22.832,50.94l20.196-3.562c0.057,0.193,0.106,0.388,0.179,0.573L20.203,61.234  c-1.048-1.952-1.909-4.018-2.561-6.176C19.895,54.473,21.771,52.958,22.832,50.94z M21.169,62.919l22.984-13.271  c0.069,0.091,0.144,0.174,0.217,0.262L29.413,67.738h-4.66C23.423,66.243,22.22,64.632,21.169,62.919z M32.373,74.126  c1.868-1.503,3.066-3.804,3.066-6.388h-3.49l12.81-15.268L34.241,75.188C33.607,74.853,32.982,74.5,32.373,74.126z M69.233,90.397  H30.605l5.611-12.121c1.815,0.761,3.708,1.37,5.661,1.826c1.39,2.548,4.095,4.278,7.202,4.278c2.925,0,5.487-1.54,6.937-3.85  c2.654-0.45,5.21-1.19,7.631-2.193L69.233,90.397z M65.627,75.267l-9.893-21.353l11.563,13.777h-3.489  c0,2.753,1.361,5.183,3.445,6.67C66.721,74.678,66.179,74.979,65.627,75.267z M69.836,67.691L55.285,50.353  c0.155-0.161,0.288-0.342,0.427-0.518l23.011,13.284c-1.01,1.622-2.151,3.148-3.414,4.572H69.836z"></path></svg>