<svg height='100px' width='100px'  fill="#000000" xmlns:x="http://ns.adobe.com/Extensibility/1.0/" xmlns:i="http://ns.adobe.com/AdobeIllustrator/10.0/" xmlns:graph="http://ns.adobe.com/Graphs/1.0/" xmlns="http://www.w3.org/2000/svg" xmlns:xlink="http://www.w3.org/1999/xlink" version="1.1" x="0px" y="0px" viewBox="0 0 100 100" style="enable-background:new 0 0 100 100;" xml:space="preserve"><g><g i:extraneous="self"><g><path d="M5273.1,2400.1v-2c0-2.8-5-4-9.7-4s-9.7,1.3-9.7,4v2c0,1.8,0.7,3.6,2,4.9l5,4.9c0.3,0.3,0.4,0.6,0.4,1v6.4     c0,0.4,0.2,0.7,0.6,0.8l2.9,0.9c0.5,0.1,1-0.2,1-0.8v-7.2c0-0.4,0.2-0.7,0.4-1l5.1-5C5272.4,2403.7,5273.1,2401.9,5273.1,2400.1z      M5263.4,2400c-4.8,0-7.4-1.3-7.5-1.8v0c0.1-0.5,2.7-1.8,7.5-1.8c4.8,0,7.3,1.3,7.5,1.8C5270.7,2398.7,5268.2,2400,5263.4,2400z"></path><path d="M5268.4,2410.3c-0.6,0-1,0.4-1,1c0,0.6,0.4,1,1,1h4.3c0.6,0,1-0.4,1-1c0-0.6-0.4-1-1-1H5268.4z"></path><path d="M5272.7,2413.7h-4.3c-0.6,0-1,0.4-1,1c0,0.6,0.4,1,1,1h4.3c0.6,0,1-0.4,1-1C5273.7,2414.1,5273.3,2413.7,5272.7,2413.7z"></path><path d="M5272.7,2417h-4.3c-0.6,0-1,0.4-1,1c0,0.6,0.4,1,1,1h4.3c0.6,0,1-0.4,1-1C5273.7,2417.5,5273.3,2417,5272.7,2417z"></path></g><g><path d="M58.2,35.2c-0.4,0-0.8,0-1.1,0.1c-0.2,0.4-0.3,0.7-0.5,1c-0.8,1.4-2.3,4-4.1,7.3c1.8-0.5,3.8-0.7,5.8-0.7     c13,0,23.6,10.6,23.6,23.5c0,13-10.6,23.5-23.6,23.5c-12.1,0-22.1-9.2-23.4-21c-1.1,0.4-2.3,0.6-3.5,0.6c-1.4,0-2.9-0.3-4.1-0.8     c1.2,16.1,14.6,28.8,31.1,28.8c17.2,0,31.2-14,31.2-31.2C89.4,49.2,75.4,35.2,58.2,35.2z"></path><path d="M58.2,49.8c-2.1,0-3.8,1.7-3.8,3.8v12.7c0,2.1,1.7,3.8,3.8,3.8h10.3c2.1,0,3.8-1.7,3.8-3.8c0-2.1-1.7-3.8-3.8-3.8H62     v-8.9C62,51.5,60.3,49.8,58.2,49.8z"></path><path d="M34.2,60.2c4.6-8,13.3-23.3,15.7-27.6c3.2-5.8,3-12.6,0-18.6C44.7,3.7,32.2-0.4,22,4.7c-10.2,5.2-14.2,18-9.2,27.9     c2.2,4.4,11,19.6,15.6,27.6C29.7,62.4,32.9,62.4,34.2,60.2z M22.4,23.3c0-5,4-9,9-9c5,0,9,4,9,9c0,5-4,9-9,9     C26.4,32.2,22.4,28.2,22.4,23.3z"></path></g></g></g></svg>