<svg height='100px' width='100px'  fill="#000000" xmlns="http://www.w3.org/2000/svg" xmlns:xlink="http://www.w3.org/1999/xlink" viewBox="0 0 100 138" version="1.1" x="0px" y="0px"><title>restaurant</title><desc>Created with Sketch.</desc><g stroke="none" stroke-width="1" fill="none" fill-rule="evenodd"><g transform="translate(-8115.000000, -4675.000000)" fill="#000000" fill-rule="nonzero"><path d="M8157,4787.25 C8155.0427,4781.54121 8151.46044,4776.5285 8146.69332,4772.82771 L8134.97433,4763.73007 C8122.94114,4754.38851 8115.63418,4740.22039 8115,4725 C8115,4697.38576 8137.38576,4675 8165,4675 C8192.61424,4675 8215,4697.38576 8215,4725 C8214.36582,4740.22039 8207.05886,4754.38851 8195.02567,4763.73007 L8183.30668,4772.82771 C8178.53956,4776.5285 8174.9573,4781.54121 8173,4787.25 L8171.62162,4791.27027 C8170.65157,4794.0996 8167.99101,4796 8165,4796 C8162.00899,4796 8159.34843,4794.0996 8158.37838,4791.27027 L8157,4787.25 Z M8165,4813 C8153.95431,4813 8145,4811.65685 8145,4810 C8145,4808.34315 8153.95431,4807 8165,4807 C8176.04569,4807 8185,4808.34315 8185,4810 C8185,4811.65685 8176.04569,4813 8165,4813 Z M8165,4764 C8187.09139,4764 8205,4746.09139 8205,4724 C8205,4701.90861 8187.09139,4684 8165,4684 C8142.90861,4684 8125,4701.90861 8125,4724 C8125,4746.09139 8142.90861,4764 8165,4764 Z M8157.71339,4720.55323 L8159.52717,4751.86422 C8159.63188,4753.72849 8157.62198,4755.32993 8155.35206,4755.42858 C8153.08215,4755.52723 8150.90238,4754.10713 8150.79757,4752.24361 C8150.7905,4752.11672 8150.79092,4751.98854 8150.79768,4751.86433 L8152.61164,4720.55323 C8149.40624,4719.84128 8148,4716.98114 8148,4713.56154 L8148,4697.29947 C8148,4696.58184 8148.58173,4696.00011 8149.29936,4696.00011 C8150.0171,4696 8150.59894,4696.58184 8150.59894,4697.29947 L8150.59894,4710.55177 C8150.59894,4710.91358 8150.89195,4711.2066 8151.25366,4711.20649 C8151.61537,4711.20638 8151.9086,4710.91337 8151.90838,4710.55177 L8151.9086,4697.29969 C8151.90849,4696.58173 8152.49012,4696.00011 8153.20785,4696 C8153.9257,4696.00021 8154.50743,4696.58173 8154.50754,4697.29969 L8154.50733,4710.55177 C8154.50754,4710.91337 8154.80034,4711.2066 8155.16205,4711.20649 C8155.52376,4711.20638 8155.81687,4710.91348 8155.81677,4710.55177 L8155.81677,4697.29947 C8155.81677,4696.58184 8156.39861,4696 8157.11645,4696.00021 C8157.83408,4696.00021 8158.41592,4696.58163 8158.41592,4697.29969 L8158.41603,4710.55188 C8158.41592,4710.91337 8158.70904,4711.2067 8159.07043,4711.20649 C8159.43225,4711.20649 8159.72547,4710.91326 8159.72547,4710.55188 L8159.72536,4697.29969 C8159.72536,4696.58163 8160.30721,4696.00021 8161.02484,4696.00021 C8161.74247,4696.00021 8162.32431,4696.58163 8162.32431,4697.29969 L8162.32431,4713.56111 C8162.3244,4716.98073 8160.91845,4719.84079 8157.71339,4720.55323 Z M8183,4728.89723 L8182.99989,4751.30647 C8182.99989,4753.58608 8180.94026,4755.43406 8178.39918,4755.43396 C8175.85832,4755.43386 8173.79825,4753.58628 8173.79847,4751.30647 L8173.79836,4730.73345 L8170.78302,4729.74288 L8170.78337,4707.84875 C8170.78337,4701.30447 8175.70542,4696 8183,4696 L8182.99983,4728.1934 L8183,4728.89723 Z"></path></g></g></svg>